<?xml version="1.0" standalone="no"?>
<!DOCTYPE svg PUBLIC "-//W3C//DTD SVG 20010904//EN"
 "http://www.w3.org/TR/2001/REC-SVG-20010904/DTD/svg10.dtd">
<svg version="1.0" xmlns="http://www.w3.org/2000/svg"
 width="1024.000000pt" height="1014.000000pt" viewBox="0 0 1024.000000 1014.000000"
 preserveAspectRatio="xMidYMid meet">

<g transform="translate(0.000000,1014.000000) scale(0.100000,-0.100000)"
fill="#000000" stroke="none">
<path d="M0 5070 l0 -5070 5120 0 5120 0 0 5070 0 5070 -5120 0 -5120 0 0
-5070z m5691 3757 c870 -144 1636 -563 2203 -1206 1005 -1142 1217 -2764 538
-4119 -219 -436 -501 -800 -882 -1139 -202 -180 -494 -375 -767 -512 -474
-238 -935 -359 -1493 -391 -250 -15 -576 6 -811 50 -112 21 -169 84 -169 187
0 54 18 90 64 131 51 45 91 49 226 23 264 -49 332 -55 645 -55 231 0 329 4
425 17 374 53 703 151 1025 306 355 171 612 351 893 626 389 379 668 822 838
1332 298 893 211 1858 -244 2688 -239 436 -608 845 -1017 1128 -469 325 -996
522 -1560 583 -171 19 -516 21 -685 4 -573 -55 -1146 -270 -1615 -603 -374
-266 -702 -623 -938 -1017 -274 -459 -429 -963 -467 -1514 -23 -337 25 -795
115 -1099 30 -102 10 -191 -54 -236 -40 -29 -136 -29 -191 -1 -56 29 -82 83
-124 255 -159 666 -141 1329 56 1975 123 405 337 825 587 1150 363 473 793
828 1315 1086 389 192 759 304 1191 359 179 22 188 23 475 20 230 -2 286 -6
421 -28z m-128 -913 c215 -25 342 -53 552 -121 404 -132 797 -375 1100 -678
169 -170 336 -385 356 -459 35 -129 -122 -260 -249 -207 -24 10 -58 47 -117
125 -357 478 -821 790 -1383 930 -218 55 -346 70 -592 70 -420 -1 -721 -72
-1125 -269 -432 -211 -777 -548 -994 -974 -284 -556 -360 -1139 -225 -1711
167 -709 628 -1292 1277 -1617 226 -113 446 -184 718 -230 131 -22 567 -25
699 -5 286 44 593 145 820 269 248 135 500 338 679 547 252 294 407 589 512
969 16 59 37 119 46 133 56 86 241 87 298 1 35 -55 36 -84 5 -206 -116 -459
-344 -875 -666 -1218 -401 -428 -912 -712 -1489 -828 -739 -148 -1514 14
-2134 447 -389 273 -710 650 -912 1074 -330 688 -366 1453 -104 2174 148 408
344 720 630 1005 300 300 620 497 1040 641 423 146 818 189 1258 138z m-975
-1340 c20 -8 50 -27 65 -42 53 -50 57 -68 57 -242 l0 -160 632 0 c623 0 632 0
676 -21 51 -25 88 -77 98 -136 10 -62 -30 -140 -88 -174 l-43 -24 -637 -3
-638 -3 0 -553 c0 -607 3 -648 58 -767 82 -180 243 -309 439 -353 96 -21 163
-20 259 4 107 27 172 61 265 136 100 81 127 94 188 94 63 0 97 -13 140 -53 92
-87 94 -214 6 -302 -61 -62 -188 -153 -271 -197 -326 -171 -714 -146 -1030 67
-135 92 -271 248 -347 400 -40 81 -85 242 -97 347 -5 55 -10 331 -10 637 l0
539 -187 4 c-215 3 -241 11 -286 80 -47 73 -46 138 5 211 41 58 78 67 283 67
l185 0 0 155 c0 136 3 161 20 195 47 91 163 134 258 94z"/>
</g>
</svg>
